PathFileType	4	(X/Y/Z)	D:\TRACE\spotREDO_2-26-24\spot_justArm_Motion_3_5-platform.trc
DataRate	CameraRate	NumFrames	NumMarkers	Units	OrigDataRate	OrigDataStartFrame	OrigNumFrames
100.00	100.00	      24	5	mm	100.00	3501	      7000
Frame#	Time	Left_Front			Right_Front			Left_Aft			Right_Aft			Post			
		X1	Y1	Z1	X2	Y2	Z2	X3	Y3	Z3	X4	Y4	Z4	X5	Y5	Z5	

3501	35.000	-668.61029	14.90290	-570.44543	746.31818	21.31218	-486.01227	-739.20935	-14.63839	648.44769	830.01758	-8.02545	652.80414	40.13194	654.77374	-957.06061	
3502	35.010	-668.55847	15.53817	-570.28503	746.30444	21.52547	-485.84863	-739.31683	-15.01212	648.54279	829.96637	-8.55153	652.90796	40.39879	655.46405	-956.28058	
3503	35.020	-668.43939	15.83586	-570.10260	746.32782	22.05731	-485.75330	-739.37292	-15.52681	648.64246	829.82544	-8.94415	653.01917	40.38425	656.32733	-955.69836	
3504	35.030	-668.40448	16.15290	-569.93018	746.32220	22.60118	-485.51108	-739.48096	-16.10246	648.72504	829.72656	-9.48397	653.03082	40.24379	656.94513	-955.21216	
3505	35.040	-668.47986	16.42385	-569.87323	746.16284	22.93656	-485.48004	-739.43634	-16.63682	648.96924	829.74353	-9.73938	653.18372	40.45789	657.43219	-954.72522	
3506	35.050	-668.63495	16.87152	-569.76166	746.15411	23.23866	-485.27872	-739.38892	-16.97220	649.03400	829.82373	-10.18394	653.38403	40.60497	658.48224	-953.88269	
3507	35.060	-668.74683	17.58632	-569.65851	746.02155	23.78434	-485.17294	-739.51752	-17.31325	648.96124	829.64874	-10.81571	653.50592	40.37366	659.13708	-953.44489	
3508	35.070	-668.79657	18.07166	-569.60034	745.98547	23.97918	-485.14337	-739.56519	-17.81032	649.06140	829.58496	-11.12487	653.57404	40.18638	659.66803	-952.92865	
3509	35.080	-668.77209	18.35000	-569.59729	745.88818	24.18140	-485.16879	-739.67963	-18.20780	649.14569	829.43616	-11.44245	653.68628	39.91958	660.30182	-952.29492	
3510	35.090	-668.75073	18.61765	-569.52991	745.83014	24.60456	-484.98801	-739.69025	-18.61407	649.23999	829.29919	-11.77440	653.68188	40.18184	661.05682	-951.51770	
3511	35.100	-668.78992	18.87976	-569.47308	745.86218	24.84438	-484.78738	-739.65326	-18.91567	649.30902	829.38873	-12.25412	653.68420	40.06034	661.32410	-951.13538	
3512	35.110	-668.80225	19.15566	-569.28583	745.74945	25.08042	-484.78717	-739.70789	-19.28117	649.43256	829.33618	-12.56547	653.84412	40.30610	662.00543	-950.78943	
3513	35.120	-668.88550	19.53551	-569.04932	745.68054	25.53043	-484.77036	-739.73877	-19.59171	649.57458	829.45166	-13.02886	653.99127	39.79770	662.49786	-950.52246	
3514	35.130	-668.93280	19.88568	-568.90955	745.69318	25.80227	-484.57385	-739.80353	-19.86439	649.65240	829.57416	-13.38784	654.04773	39.75591	663.13025	-950.18488	
3515	35.140	-669.10913	20.26644	-568.79370	745.74512	26.08062	-484.42380	-739.85742	-20.21811	649.67542	829.56671	-13.65489	654.12134	39.96339	663.47980	-949.82898	
3516	35.150	-669.16724	20.53876	-568.78076	745.59039	26.32561	-484.32776	-739.91052	-20.53762	649.72498	829.38000	-13.87923	654.13849	39.77081	664.00110	-949.38776	
3517	35.160	-669.04236	20.72077	-568.71472	745.58423	26.48724	-484.26895	-739.93494	-20.82907	649.81189	829.29443	-14.03243	654.21124	39.62307	664.45898	-948.98755	
3518	35.170	-669.12836	20.92149	-568.74994	745.61615	26.50781	-484.09283	-739.93250	-21.06835	649.89319	829.21716	-14.20378	654.22870	39.40734	664.79840	-948.66479	
3519	35.180	-669.17303	21.06446	-568.63611	745.53760	26.57734	-484.07590	-740.11578	-21.18890	649.87970	829.15527	-14.40820	654.37872	39.33885	665.00488	-948.46289	
3520	35.190	-669.19165	21.24402	-568.50775	745.56262	26.71106	-483.92914	-740.11414	-21.33466	649.89020	829.03516	-14.66820	654.46179	39.23545	665.32843	-948.10413	
3521	35.200	-669.27026	21.47859	-568.47772	745.54822	26.89867	-483.89032	-740.22522	-21.52543	649.93494	828.92664	-14.92792	654.45050	39.06390	665.60632	-947.91455	
3522	35.210	-669.43085	21.65129	-568.38452	745.47778	27.04296	-483.79190	-740.26215	-21.67676	649.98633	828.98584	-15.18529	654.54236	39.08070	665.93146	-947.65668	
3523	35.220	-669.37445	21.70978	-568.34070	745.33240	27.19741	-483.77179	-740.29462	-21.83788	650.13074	828.99689	-15.41270	654.55133	38.95399	666.31781	-947.29974	
3524	35.230	-669.46729	21.92881	-568.30426	745.25397	27.30052	-483.72849	-740.34875	-22.00361	650.19098	828.99353	-15.46825	654.58380	38.60879	666.56842	-947.08984	
